Mike Murphy - Vol 1

 

Over 100 mins of some of the funniest of Mike's windup's and features memories from Mike, Twink, Fran Dempsey and many more.

Running Time: 100 mins approx

File Info:
Complete name                            : Im Mike Murphy From RTE Volume 1 DVDRip x264 AC3 DeViL303.mkv
Format                                   : Matroska
Format version                           : Version 1
File size                                : 561 MiB
Duration                                 : 52mn 26s
Overall bit rate mode                    : Variable
Overall bit rate                         : 1 496 Kbps
Encoded date                             : UTC 2013-03-13 20:23:13
Writing application                      : mkvmerge v2.5.3 ('Boogie') built on Mar  7 2009 15:00:41
Writing library                          : libebml v0.7.7 + libmatroska v0.8.1

Video
ID                                       : 1
Format                                   : AVC
Format/Info                              : Advanced Video Codec
Format profile                           : High@L3.0
Format settings, CABAC                   : Yes
Format settings, ReFrames                : 3 frames
Codec ID                                 : V_MPEG4/ISO/AVC
Duration                                 : 52mn 26s
Bit rate mode                            : Variable
Bit rate                                 : 1 303 Kbps
Maximum bit rate                         : 12.0 Mbps
Width                                    : 720 pixels
Height                                   : 480 pixels
Display aspect ratio                     : 16:9
Original display aspect ratio            : 3:2
Frame rate mode                          : Constant
Frame rate                               : 29.970 fps
Standard                                 : NTSC
Color space                              : YUV
Chroma subsampling                       : 4:2:0
Bit depth                                : 8 bits
Scan type                                : Progressive
Bits/(Pixel*Frame)                       : 0.126
Stream size                              : 478 MiB (85%)
Writing library                          : x264 core 93 r1542M 5b86182
Encoding settings                        : cabac=1 / ref=4 / deblock=1:-1:-1 / 
Default                                  : Yes
Forced                                   : No

Audio
ID                                       : 2
Format                                   : AC-3
Format/Info                              : Audio Coding 3
Mode extension                           : CM (complete main)
Format settings, Endianness              : Big
Codec ID                                 : A_AC3
Duration                                 : 52mn 26s
Bit rate mode                            : Constant
Bit rate                                 : 192 Kbps
Channel(s)                               : 2 channels
Channel positions                        : Front: L R
Sampling rate                            : 48.0 KHz
Bit depth                                : 16 bits
Compression mode                         : Lossy
Stream size                              : 72.0 MiB (13%)
Default                                  : Yes
Forced                                   : No

Text
ID                                       : 3
Format                                   : SSA
Codec ID                                 : S_TEXT/SSA
Codec ID/Info                            : Sub Station Alpha
Compression mode                         : Lossless
Default                                  : Yes
Forced                                   : No

Menu
00:00:00.000                             : en:Chapter 1n[00:00:00]
00:04:46.103                             : en:Chapter 2n[00:04:46]
00:09:32.207                             : en:Chapter 3n[00:09:32]
00:14:18.311                             : en:Chapter 4n[00:14:18]
00:19:04.415                             : en:Chapter 5n[00:19:04]
00:23:50.519                             : en:Chapter 6n[00:23:50]
00:28:36.623                             : en:Chapter 7n[00:28:36]
00:33:22.727                             : en:Chapter 8n[00:33:22]
00:38:08.831                             : en:Chapter 9n[00:38:08]
00:42:54.935                             : en:Chapter 10n[00:42:54]
00:47:41.039                             : en:Chapter 11n[00:47:41]
00:52:25.143                             : en:Chapter 12n[00:52:25]

